PathFileType	4	(X/Y/Z)	/Users/itak/Documents/Research/Walk-IL/dataset/trc/00068_00006.trc
DataRate	CameraRate	NumFrames	NumMarkers	Units	OrigDataRate	OrigDataStartFrame	OrigNumFrames
100.000000	100.000000	4	53	mm	100.000000	264	706
Frame#	Time	RPSI			LPSI			L3			STRN			T10			C7			CLAV			RBAK			LBAK			LSHO			LUPA			LAEL			LAOL			LWTS			LWPS			LFRA			LIFD			LHPS			LHTS			RSHO			RUPA			RAEL			RAOL			RWTS			RWPS			RFRA			RIFD			RHTS			RHPS			RBHD			LFHD			RFHD			LBHD			LHIP			RHIP			RASI			LASI			LKNE			LTHI			LANK			LTIP			LTOE			LMT1			LMT5			LHEE			RKNE			RTHI			RANK			RTIP			RTOE			RMT1			RMT5			RHEE			
		X1	Y1	Z1	X2	Y2	Z2	X3	Y3	Z3	X4	Y4	Z4	X5	Y5	Z5	X6	Y6	Z6	X7	Y7	Z7	X8	Y8	Z8	X9	Y9	Z9	X10	Y10	Z10	X11	Y11	Z11	X12	Y12	Z12	X13	Y13	Z13	X14	Y14	Z14	X15	Y15	Z15	X16	Y16	Z16	X17	Y17	Z17	X18	Y18	Z18	X19	Y19	Z19	X20	Y20	Z20	X21	Y21	Z21	X22	Y22	Z22	X23	Y23	Z23	X24	Y24	Z24	X25	Y25	Z25	X26	Y26	Z26	X27	Y27	Z27	X28	Y28	Z28	X29	Y29	Z29	X30	Y30	Z30	X31	Y31	Z31	X32	Y32	Z32	X33	Y33	Z33	X34	Y34	Z34	X35	Y35	Z35	X36	Y36	Z36	X37	Y37	Z37	X38	Y38	Z38	X39	Y39	Z39	X40	Y40	Z40	X41	Y41	Z41	X42	Y42	Z42	X43	Y43	Z43	X44	Y44	Z44	X45	Y45	Z45	X46	Y46	Z46	X47	Y47	Z47	X48	Y48	Z48	X49	Y49	Z49	X50	Y50	Z50	X51	Y51	Z51	X52	Y52	Z52	X53	Y53	Z53	

265	2.64	-475.1771545410156	996.879150390625	262.2983093261719	-646.1499633789062	998.3280029296875	255.8193664550781	-569.2406616210938	1059.26416015625	254.5937042236328	-525.7515258789062	1252.654418945312	0.4212304651737213	-581.8307495117188	1190.259765625	265.0304565429688	-567.6284790039062	1457.963134765625	205.0167694091797	-528.51611328125	1367.161010742188	30.31006050109863	-511.5497741699219	1317.229858398438	282.0106506347656	-669.4988403320312	1423.155395507812	208.0827941894531	-718.7460327148438	1429.796508789062	93.87528991699219	-803.3956298828125	1308.787353515625	94.93509674072266	-840.3255615234375	1102.22705078125	53.9151496887207	-764.0396728515625	1070.881713867188	121.522590637207	-757.6909790039062	903.6621704101562	-94.42539978027344	-821.8589477539062	872.6893310546875	-49.66128158569336	-843.215576171875	1002.197204589844	4.522477149963379	-722.9239501953125	736.607177734375	-160.6688385009766	-808.024169921875	807.6026000976562	-107.6172637939453	-754.9331665039062	835.631591796875	-143.7964172363281	-385.1877136230469	1416.831298828125	181.8809967041016	-329.7179870605469	1351.648071289062	213.4456787109375	-298.4635314941406	1103.091796875	285.2442321777344	-383.6512451171875	1071.624145507812	244.6101226806641	-290.8611450195312	837.75439453125	161.9843597412109	-261.1183471679688	830.6876831054688	243.7534332275391	-283.2821655273438	1020.477722167969	283.90771484375	-314.0670166015625	649.1847534179688	175.2503509521484	-287.6538696289062	732.1047973632812	151.7073516845703	-253.0150146484375	736.4114379882812	220.9824981689453	-622.7992553710938	1645.841064453125	103.0803375244141	-410.0733642578125	1653.818969726562	69.43913269042969	-496.3346557617188	1675.201538085938	-20.14524841308594	-523.6259765625	1615.852661132812	193.964111328125	-733.8676147460938	938.726806640625	148.9165344238281	-393.703857421875	923.1839599609375	199.004150390625	-407.1552124023438	944.2646484375	74.42676544189453	-672.7537231445312	942.8035278320312	40.14439392089844	-711.828125	460.7683410644531	118.2369842529297	-734.3001098632812	612.041259765625	130.4828948974609	-744.2206420898438	136.0524291992188	495.7984924316406	-745.4293823242188	297.0988464355469	319.5020446777344	-735.7918701171875	39.01157760620117	344.1197204589844	-683.4594116210938	53.37160110473633	371.2138366699219	-778.2205810546875	56.66049194335938	428.7165222167969	-668.5145263671875	180.1956024169922	526.3643798828125	-459.7395629882812	508.0680847167969	-17.76851081848145	-395.1968688964844	759.8618774414062	73.00193786621094	-565.8580932617188	35.13825225830078	-39.05878067016602	-476.583984375	379.8531799316406	-29.84588050842285	-531.53515625	68.61777496337891	-247.4960632324219	-585.7100830078125	62.19344711303711	-207.9146728515625	-508.5428161621094	54.62212753295898	-145.8254852294922	-635.0333251953125	38.45796585083008	-17.77730369567871	
266	2.65	-474.1652221679688	998.0097045898438	254.1801147460938	-645.0870361328125	998.9165649414062	245.2811431884766	-568.0783081054688	1060.640869140625	245.3400421142578	-521.80419921875	1253.996459960938	-8.728091239929199	-580.5299072265625	1191.460571289062	255.1473083496094	-566.0298461914062	1459.151489257812	195.4026336669922	-525.0451049804688	1368.501342773438	21.1705265045166	-510.3269653320312	1318.592529296875	272.896728515625	-667.7930908203125	1424.343505859375	197.4163208007812	-715.8908081054688	1431.060424804688	82.72274780273438	-800.5750732421875	1310.104736328125	83.09632873535156	-836.5615844726562	1103.116821289062	43.4964599609375	-760.5299072265625	1072.587036132812	111.7641906738281	-755.4458618164062	900.6353149414062	-100.8215179443359	-820.0162963867188	871.4561767578125	-55.48462295532227	-840.1737670898438	1002.218994140625	-4.044824123382568	-722.2102661132812	731.2448120117188	-162.3069458007812	-807.3466186523438	804.810791015625	-111.8709030151367	-752.9788208007812	831.0499877929688	-148.2559204101562	-383.3233337402344	1418.503051757812	173.9118194580078	-327.9586791992188	1353.414184570312	205.9083557128906	-297.5474853515625	1104.795654296875	277.837890625	-382.6328125	1073.703247070312	236.7361145019531	-289.8536071777344	839.458984375	154.3644714355469	-260.4120788574219	832.4247436523438	236.2503814697266	-282.6035766601562	1022.105346679688	276.6125183105469	-313.9596252441406	650.9398193359375	168.119140625	-287.0405578613281	733.6705932617188	144.3815155029297	-252.5333404541016	738.0526733398438	213.7365875244141	-619.8666381835938	1647.004760742188	93.19880676269531	-406.8348693847656	1654.812866210938	61.53870391845703	-492.2781982421875	1676.28662109375	-28.8513011932373	-521.5464477539062	1616.900756835938	185.0379791259766	-731.2440795898438	939.3900756835938	136.8968353271484	-391.7856750488281	924.312255859375	192.1244049072266	-403.3166198730469	945.5935668945312	67.41864013671875	-668.4281616210938	944.060302734375	29.15315628051758	-712.6567993164062	461.0547790527344	96.21532440185547	-733.8952026367188	612.509033203125	111.1928939819336	-749.1725463867188	147.3544006347656	483.9656066894531	-748.4075317382812	302.4591369628906	301.6732788085938	-736.9580688476562	38.0184211730957	340.3922119140625	-685.3822631835938	57.01165771484375	366.0470886230469	-780.80517578125	62.57963943481445	421.8427734375	-674.675048828125	194.1196746826172	513.0410766601562	-458.189208984375	508.0915832519531	-22.7936840057373	-392.491455078125	759.8240966796875	67.10757446289062	-565.7158813476562	35.48787689208984	-39.50830459594727	-475.5460510253906	379.7750549316406	-34.35501098632812	-532.3165893554688	65.86024475097656	-248.9139251708984	-586.1743774414062	60.26321792602539	-208.8381500244141	-508.9120178222656	54.09272766113281	-146.7601928710938	-634.9813232421875	38.93016815185547	-18.13091278076172	
267	2.66	-473.0539855957031	998.9959106445312	246.2185974121094	-643.961669921875	999.2931518554688	234.8381195068359	-566.8160400390625	1061.855102539062	236.2731170654297	-517.8260498046875	1255.186889648438	-17.68712425231934	-579.1612548828125	1192.539794921875	245.3993530273438	-564.3594360351562	1460.20849609375	185.9348907470703	-521.5780639648438	1369.700073242188	12.17790031433105	-509.0982055664062	1319.830810546875	263.9368286132812	-666.0339965820312	1425.373291015625	186.9323425292969	-713.0352783203125	1432.12939453125	71.77481842041016	-797.737060546875	1311.218505859375	71.52999114990234	-832.9508666992188	1103.820556640625	33.25740051269531	-757.1903076171875	1074.069458007812	102.2309722900391	-753.246826171875	897.6102905273438	-107.0168228149414	-818.2171630859375	870.2097778320312	-61.20073318481445	-837.2338256835938	1002.117370605469	-12.46715927124023	-721.4362182617188	725.9859619140625	-163.5903930664062	-806.60546875	802.0338134765625	-115.9484786987305	-750.9825439453125	826.4886474609375	-152.4542694091797	-381.4410095214844	1420.052001953125	166.1190032958984	-326.2025451660156	1355.084106445312	198.5596313476562	-296.4014587402344	1106.442260742188	270.7083129882812	-381.3732299804688	1075.714599609375	229.1930236816406	-288.6907348632812	841.2338256835938	146.7872314453125	-259.5409545898438	834.0914916992188	228.7571868896484	-281.677001953125	1023.659790039062	269.5503845214844	-313.8931884765625	652.783203125	160.75634765625	-286.3826904296875	735.3059692382812	136.9533081054688	-251.9826049804688	739.640869140625	206.3748626708984	-616.9229736328125	1648.145629882812	83.41091918945312	-403.5888671875	1655.693969726562	53.76516342163086	-488.16650390625	1677.284301757812	-37.4427604675293	-519.4530639648438	1617.874633789062	176.1493988037109	-728.4700317382812	939.9122314453125	124.9371337890625	-389.8476257324219	925.2656860351562	185.4484405517578	-399.3707885742188	946.7139892578125	60.6014404296875	-663.909423828125	945.184326171875	18.27847290039062	-712.8406372070312	461.5472412109375	73.85957336425781	-733.1964721679688	613.0979614257812	91.73905944824219	-754.1272583007812	158.9157409667969	470.5538635253906	-750.8973388671875	307.5804138183594	282.744384765625	-738.3156127929688	37.30302047729492	334.6518859863281	-687.4448852539062	61.46444320678711	359.2406005859375	-783.6266479492188	69.67090606689453	413.1201171875	-680.8782958984375	207.7872924804688	498.5665283203125	-456.8643798828125	507.8331909179688	-27.12810134887695	-389.8080749511719	759.5227661132812	61.63321685791016	-565.6776123046875	35.83049392700195	-39.92213821411133	-474.7147521972656	379.5412292480469	-38.22381973266602	-533.1375732421875	63.37796401977539	-250.2075958251953	-586.689697265625	58.55030822753906	-209.6540374755859	-509.3598937988281	53.73298263549805	-147.6071166992188	-635.0272827148438	39.30170059204102	-18.44833374023438	
268	2.67	-471.9041137695312	999.881591796875	238.4043273925781	-642.8377685546875	999.4473876953125	224.5005187988281	-565.494873046875	1062.892578125	227.3432312011719	-513.8223876953125	1256.204833984375	-26.46383857727051	-577.776611328125	1193.50830078125	235.8338470458984	-562.6231689453125	1461.138427734375	176.6016845703125	-518.113525390625	1370.73779296875	3.318929433822632	-507.9023742675781	1320.936645507812	255.1368408203125	-664.2333984375	1426.246337890625	176.6139526367188	-710.1935424804688	1432.97509765625	61.01200103759766	-794.8736572265625	1312.070556640625	60.26223754882812	-829.5082397460938	1104.297607421875	23.18216323852539	-754.052734375	1075.26806640625	92.91991424560547	-751.0790405273438	894.5796508789062	-113.0320892333984	-816.4743041992188	868.9150390625	-66.86123657226562	-834.396240234375	1001.854553222656	-20.76677513122559	-720.5792236328125	720.8882446289062	-164.6671905517578	-805.7327270507812	799.2613525390625	-119.9224319458008	-748.9706420898438	821.9962158203125	-156.4748382568359	-379.5404663085938	1421.43359375	158.5204467773438	-324.4670104980469	1356.593139648438	191.4267578125	-295.0534362792969	1107.952514648438	263.85693359375	-379.8746337890625	1077.543579101562	221.9423828125	-287.3277282714844	843.000732421875	139.2833251953125	-258.5235900878906	835.5985717773438	221.3310241699219	-280.5210876464844	1025.072021484375	262.7249145507812	-313.7870178222656	654.6400146484375	153.0921630859375	-285.6113586425781	736.9523315429688	129.4188232421875	-251.3653717041016	741.09326171875	198.9273529052734	-613.9721069335938	1649.262939453125	73.70507049560547	-400.343994140625	1656.482177734375	46.12896728515625	-483.9982604980469	1678.222045898438	-45.90639877319336	-517.3736572265625	1618.7724609375	167.308349609375	-725.5601196289062	940.2844848632812	113.0307922363281	-387.9310302734375	926.079345703125	178.9856567382812	-395.3537292480469	947.6354370117188	53.98857498168945	-659.2275390625	946.1465454101562	7.537317276000977	-712.1864624023438	462.23681640625	51.31398773193359	-732.09033203125	613.8146362304688	72.24299621582031	-758.9879150390625	170.3968353271484	455.6079406738281	-752.7721557617188	312.4049987792969	262.8918762207031	-739.7662353515625	37.25110626220703	326.5622253417969	-689.5732421875	66.7147216796875	350.5403442382812	-786.6637573242188	77.7174072265625	402.2477111816406	-686.9591064453125	220.8574676513672	483.0567932128906	-455.7004089355469	507.3733520507812	-30.8850212097168	-387.2021484375	759.0682983398438	56.50669097900391	-565.739013671875	36.14187240600586	-40.29243087768555	-474.0186157226562	379.1872253417969	-41.49234771728516	-533.904052734375	61.15213775634766	-251.3592529296875	-587.178955078125	57.05228042602539	-210.3577728271484	-509.8169250488281	53.48813247680664	-148.3440551757812	-635.1407470703125	39.58352279663086	-18.72176170349121	
